<svg width="668" height="161" viewBox="0 0 668 161" fill="none" xmlns="http://www.w3.org/2000/svg">
<path d="M0 156.988C0.87305 157.005 1.49777 157.629 1.51342 158.502C1.52814 159.386 0.839175 160.112 0 160.116V156.988Z" fill="#0A0A0A"/>
<path d="M0 148.221C0.862773 148.214 1.49993 148.816 1.50225 149.645C1.50393 150.415 0.795279 151.138 0.0111692 151.169L0 151.164V148.221Z" fill="#0A0A0A"/>
<path d="M0 139.425C0.886499 139.436 1.6957 140.235 1.68655 141.1C1.67648 141.966 0.939718 142.652 0.0167538 142.653L0 142.647V139.425Z" fill="#0A0A0A"/>
<path d="M53.1709 132.634C53.8493 132.638 54.5609 133.403 54.5391 134.108C54.5136 134.899 53.8922 135.468 53.0703 135.398C52.2703 135.331 51.7549 134.927 51.7691 134.052C51.7828 133.262 52.4187 132.63 53.1709 132.634Z" fill="#0A0A0A"/>
<path d="M0 130.378C0.954812 130.397 1.72887 131.168 1.72564 132.109C1.72312 132.939 0.857371 133.842 0.0446767 133.863C0.0306359 133.863 0.0139541 133.857 0 133.857V130.378Z" fill="#0A0A0A"/>
<path d="M47.039 126.402C47.8447 126.382 48.4756 126.976 48.4351 127.792C48.3949 128.58 48.0527 129.155 47.1563 129.183C46.3936 129.206 45.6979 128.591 45.6484 127.848C45.6007 127.121 46.273 126.422 47.039 126.402Z" fill="#0A0A0A"/>
<path d="M0.0111692 121.711C0.932722 121.69 1.89161 122.576 1.92668 123.481C1.96023 124.388 1.02493 125.323 0.094938 125.313C0.0628928 125.312 0.0319445 125.298 0 125.296V121.711H0.0111692Z" fill="#0A0A0A"/>
<path d="M40.7954 119.784C41.582 119.801 42.2899 120.526 42.2865 121.308C42.2813 122.132 41.6342 122.773 40.7954 122.783C39.8928 122.794 39.301 122.193 39.2708 121.236C39.2481 120.47 39.9857 119.768 40.7954 119.784Z" fill="#0A0A0A"/>
<path d="M16.4522 119.99C17.3024 119.957 17.873 120.515 17.8707 121.336C17.8682 122.194 17.3271 122.772 16.5304 122.772C15.6502 122.771 15.1111 122.223 15.1286 121.297C15.1454 120.445 15.6346 120.023 16.4522 119.99Z" fill="#0A0A0A"/>
<path d="M34.5854 113.775C35.559 113.752 36.3798 114.516 36.4003 115.467C36.4205 116.464 35.6766 117.204 34.6468 117.209C33.7431 117.214 32.9098 116.449 32.8653 115.573C32.8175 114.635 33.6176 113.799 34.5854 113.775Z" fill="#0A0A0A"/>
<path d="M0.0558459 112.887C1.04413 112.904 1.95546 113.824 1.93785 114.78C1.91874 115.72 0.938104 116.74 0.0502613 116.74C0.0339097 116.74 0.0163562 116.73 0 116.729V112.887C0.0181299 112.887 0.0375482 112.887 0.0558459 112.887Z" fill="#0A0A0A"/>
<path d="M13.4142 111.736C14.2897 111.75 15.1331 112.594 15.1119 113.434C15.0876 114.356 14.3456 115.068 13.403 115.07C12.4508 115.073 11.7483 114.367 11.75 113.412C11.7525 112.466 12.4931 111.722 13.4142 111.736Z" fill="#0A0A0A"/>
<path d="M28.6378 107.805C29.6072 107.821 30.474 108.688 30.4639 109.631C30.4524 110.577 29.5503 111.441 28.6043 111.413C27.604 111.381 26.8424 110.563 26.8675 109.547C26.8901 108.614 27.7275 107.79 28.6378 107.805Z" fill="#0A0A0A"/>
<path d="M0.0781842 103.974C1.12208 103.983 1.98725 104.905 1.96578 105.99C1.94399 107.049 0.993112 108.032 0.0279229 107.995L0 107.989V103.979C0.0260663 103.979 0.0519765 103.974 0.0781842 103.974Z" fill="#0A0A0A"/>
<path d="M10.3482 103.745C11.3873 103.774 12.2398 104.692 12.2247 105.761C12.2098 106.839 11.3252 107.761 10.3091 107.755C9.28953 107.747 8.3417 106.796 8.34338 105.783C8.34604 104.685 9.30018 103.715 10.3482 103.745Z" fill="#0A0A0A"/>
<path d="M22.8465 101.634C23.8722 101.655 24.7339 102.604 24.723 103.7C24.7117 104.689 23.8748 105.543 22.9024 105.554C21.7541 105.566 20.8563 104.698 20.8529 103.572C20.8495 102.544 21.8035 101.615 22.8465 101.634Z" fill="#0A0A0A"/>
<path d="M7.28789 95.4797C8.39348 95.5199 9.22464 96.4509 9.19782 97.6186C9.17116 98.7305 8.20964 99.6846 7.14827 99.6514C6.09832 99.6186 5.10092 98.5077 5.13782 97.412C5.17305 96.3685 6.20691 95.4401 7.28789 95.4797Z" fill="#0A0A0A"/>
<path d="M0 95.1949C1.09281 95.2068 2.04676 96.2072 2.05513 97.3505C2.06339 98.4105 1.0559 99.4381 0 99.4727V95.1949Z" fill="#0A0A0A"/>
<path d="M16.7426 95.3178C17.9468 95.3419 18.7784 96.217 18.7586 97.4399C18.7394 98.5629 17.8383 99.4504 16.7203 99.4504C15.5737 99.4487 14.6844 98.5072 14.7042 97.3115C14.7243 96.1695 15.618 95.2959 16.7426 95.3178Z" fill="#0A0A0A"/>
<path d="M39.8405 95.8204C40.6569 95.7993 41.1514 96.3612 41.1417 97.2612C41.1324 98.1135 40.6802 98.54 40.1141 98.6015C39.0062 98.6033 38.5144 98.0788 38.5504 97.1774C38.5829 96.3593 38.9758 95.8439 39.8405 95.8204Z" fill="#0A0A0A"/>
<path d="M32.1393 92.4026C33.0082 92.4144 33.7002 93.1495 33.6918 94.0501C33.6826 95.0766 33.1208 95.6405 32.1337 95.6137C31.1592 95.5876 30.472 94.8653 30.503 93.8993C30.5306 93.1078 31.3125 92.3925 32.1393 92.4026Z" fill="#0A0A0A"/>
<path d="M10.4208 89.4037C11.4953 89.3976 12.431 90.31 12.476 91.4085C12.5254 92.6215 11.6 93.6444 10.4376 93.6647C9.40027 93.6824 8.38481 92.6285 8.3713 91.5202C8.35788 90.3589 9.27445 89.4113 10.4208 89.4037Z" fill="#0A0A0A"/>
<path d="M24.8123 89.1691C25.9445 89.1649 26.6726 89.9533 26.6552 91.1628C26.6376 92.3031 25.8769 93.0673 24.7956 93.0281C23.6727 92.986 22.7993 92.1303 22.8186 91.0902C22.839 90.027 23.7235 89.1738 24.8123 89.1691Z" fill="#0A0A0A"/>
<path d="M0.0335075 87.0637C1.22482 87.0637 1.98513 87.9074 1.97136 89.2138C1.95848 90.4396 1.16417 91.2701 0 91.3136V87.0637H0.0335075Z" fill="#0A0A0A"/>
<path d="M16.7147 85.7681C17.8665 85.7778 18.77 86.6608 18.7642 87.773C18.7584 88.9031 17.8367 89.8681 16.7761 89.8504C15.6363 89.8311 14.7395 88.9476 14.7266 87.8344C14.7157 86.7067 15.6253 85.7597 16.7147 85.7681Z" fill="#0A0A0A"/>
<path d="M5.37237 83.8414C6.49691 83.8465 7.31249 84.7941 7.2823 86.0641C7.2529 87.2741 6.43853 88.124 5.31653 88.1192C4.24309 88.1142 3.26895 87.1462 3.2614 86.0808C3.25373 84.9006 4.25656 83.8364 5.37237 83.8414Z" fill="#0A0A0A"/>
<path d="M0 76.5535C1.83003 76.644 3.39475 78.2511 3.42335 80.1277C3.45251 82.0521 1.83114 83.8009 0 83.8303V76.5535Z" fill="#0A0A0A"/>
<path d="M8.77339 78.2624C9.96804 78.27 10.7126 79.0376 10.7168 80.2673C10.7203 81.3751 9.7858 82.3362 8.72871 82.3168C7.68865 82.2969 6.78584 81.3356 6.75735 80.217C6.72884 79.086 7.58422 78.2557 8.77339 78.2624Z" fill="#0A0A0A"/>
<path d="M16.9381 78.1005C18.0477 78.1033 18.9788 79.0715 18.9932 80.2338C19.0049 81.2587 18.0728 82.2438 17.0665 82.2666C15.9781 82.2908 14.9729 81.293 14.9444 80.1612C14.9174 79.066 15.855 78.0988 16.9381 78.1005Z" fill="#0A0A0A"/>
<path d="M25.9683 78.2848C27.0387 78.2988 27.8006 79.0903 27.8168 80.2003C27.8319 81.2985 27.0485 82.1116 25.9683 82.1158C24.8329 82.1197 23.9945 81.2453 23.997 80.0607C23.9995 79.0088 24.8186 78.2704 25.9683 78.2848Z" fill="#0A0A0A"/>
<path d="M34.4625 78.2848C35.4814 78.2629 36.2211 79.0271 36.2328 80.1109C36.2435 81.2036 35.5544 81.9234 34.496 81.9259C33.3479 81.9289 32.6125 81.2153 32.6196 80.1053C32.6255 79.1596 33.4889 78.3067 34.4625 78.2848Z" fill="#0A0A0A"/>
<path d="M43.2694 78.6143C44.156 78.5958 44.8948 79.3641 44.9224 80.3287C44.9474 81.1876 44.2096 81.9094 43.2973 81.9203C42.3441 81.9309 41.5703 81.2132 41.5661 80.312C41.5621 79.4447 42.3755 78.6336 43.2694 78.6143Z" fill="#0A0A0A"/>
<path d="M52.2159 78.7148C53.0418 78.7502 53.6518 79.4722 53.6344 80.3902C53.6185 81.2231 52.8546 81.9393 52.026 81.898C51.2068 81.8556 50.5019 81.0965 50.5238 80.2729C50.5481 79.4172 51.3504 78.6786 52.2159 78.7148Z" fill="#0A0A0A"/>
<path d="M78.6701 78.7874C79.4011 78.808 80.0581 79.4951 80.0607 80.2394C80.0625 81.092 79.3601 81.8123 78.5361 81.8031C77.7491 81.7929 77.1285 81.1229 77.1176 80.2729C77.1075 79.3936 77.7669 78.763 78.6701 78.7874Z" fill="#0A0A0A"/>
<path d="M60.9111 78.7483C61.6852 78.7323 62.4237 79.4459 62.4245 80.2114C62.4261 81.1184 61.865 81.7232 61.0172 81.7249C60.1706 81.7261 59.4437 80.9988 59.4647 80.1779C59.4848 79.4588 60.1883 78.7643 60.9111 78.7483Z" fill="#0A0A0A"/>
<path d="M69.7068 78.8321C70.5773 78.8253 71.1801 79.4194 71.17 80.2785C71.1597 81.1396 70.6184 81.7176 69.8185 81.7193C68.9405 81.7218 68.354 81.1389 68.3498 80.2673C68.3465 79.4193 68.8951 78.8397 69.7068 78.8321Z" fill="#0A0A0A"/>
<path d="M5.28302 72.4712C6.45993 72.4544 7.37562 73.3341 7.41075 74.5208C7.44513 75.6846 6.44449 76.7525 5.29977 76.7769C4.23253 76.7983 3.23729 75.7562 3.23906 74.6213C3.24241 73.4502 4.15646 72.4887 5.28302 72.4712Z" fill="#0A0A0A"/>
<path d="M16.871 70.7958C17.9293 70.7689 18.9757 71.8289 18.9541 72.9068C18.9331 73.9565 18.0289 74.8504 16.9771 74.8614C15.7972 74.8732 14.9245 73.9757 14.9388 72.7672C14.9535 71.6796 15.7928 70.823 16.871 70.7958Z" fill="#0A0A0A"/>
<path d="M0.418844 69.3885C1.35131 69.5993 2.00679 70.4347 2.01045 71.4995C2.01349 72.6353 1.13524 73.5691 0.0502613 73.5825C0.0334517 73.5828 0.0166877 73.5771 0 73.577V69.3383L0.418844 69.3885Z" fill="#0A0A0A"/>
<path d="M24.6113 67.5847C25.652 67.5831 26.4351 68.3973 26.443 69.4835C26.4506 70.6765 25.7111 71.4639 24.5945 71.4492C23.4859 71.4332 22.7058 70.6112 22.7125 69.4667C22.7189 68.4632 23.6019 67.5864 24.6113 67.5847Z" fill="#0A0A0A"/>
<path d="M10.5046 67.1547C11.6364 67.1631 12.418 67.9655 12.4201 69.1205C12.4218 70.382 11.5795 71.2718 10.4097 71.2482C9.40211 71.2265 8.5193 70.2785 8.51091 69.2042C8.50282 68.0751 9.40707 67.1463 10.5046 67.1547Z" fill="#0A0A0A"/>
<path d="M32.0723 64.8147C32.9669 64.8086 33.7234 65.5986 33.7142 66.5292C33.7037 67.4452 33.0165 68.181 32.1561 68.2046C31.1955 68.2292 30.4625 67.468 30.4583 66.4398C30.455 65.5749 31.2052 64.8215 32.0723 64.8147Z" fill="#0A0A0A"/>
<path d="M0 61.369C1.16062 61.3605 2.0076 62.1826 2.04396 63.3516C2.0769 64.4607 1.04662 65.5844 0 65.6077V61.369Z" fill="#0A0A0A"/>
<path d="M7.14269 60.9558C8.26309 60.933 9.13442 61.8166 9.14197 62.983C9.14801 64.0471 8.20543 64.9966 7.11477 65.027C6.04257 65.0559 5.12917 64.1162 5.12665 62.983C5.12487 61.8632 6.00087 60.9801 7.14269 60.9558Z" fill="#0A0A0A"/>
<path d="M16.7761 60.967C17.8915 60.9484 18.7706 61.8443 18.7698 62.9997C18.7671 64.0769 17.9178 64.951 16.8319 64.9934C15.818 65.0322 14.9367 64.1226 14.9053 63.0053C14.8759 61.9245 15.7369 60.9855 16.7761 60.967Z" fill="#0A0A0A"/>
<path d="M39.9466 62.028C40.6701 62.0317 41.3271 62.7295 41.3204 63.4856C41.3132 64.2263 40.7323 64.8071 39.9745 64.8315C39.1765 64.8558 38.591 64.2702 38.5839 63.4409C38.5772 62.5878 39.1214 62.0238 39.9466 62.028Z" fill="#0A0A0A"/>
<path d="M22.7628 55.1757C23.8026 55.1712 24.6536 56.0026 24.6671 57.041C24.6797 58.0694 23.8257 58.9777 22.8186 59.0068C21.8123 59.0354 20.8537 58.0593 20.8696 57.0242C20.8872 55.9185 21.6441 55.1825 22.7628 55.1757Z" fill="#0A0A0A"/>
<path d="M10.1249 53.0033C11.1781 52.9991 12.0378 53.8197 12.0571 54.8462C12.0773 55.9335 11.2024 56.8936 10.1919 56.8902C9.10753 56.886 8.26477 56.0632 8.21493 54.9635C8.16716 53.8947 9.02742 53.0088 10.1249 53.0033Z" fill="#0A0A0A"/>
<path d="M0.0781842 52.618C1.18757 52.6256 1.96158 53.442 1.96578 54.6061C1.96877 55.7378 1.08383 56.6937 0.0111692 56.7115L0 56.7059V52.6236C0.025458 52.6227 0.0525825 52.6179 0.0781842 52.618Z" fill="#0A0A0A"/>
<path d="M28.8276 49.055C29.7994 49.0709 30.6763 50.009 30.6594 51.0152C30.6418 51.9964 29.7575 52.8226 28.716 52.8302C27.634 52.8377 26.8985 52.1564 26.8675 51.1157C26.8347 50.0041 27.7534 49.0382 28.8276 49.055Z" fill="#0A0A0A"/>
<path d="M13.04 45.3413C13.9927 45.3623 14.7437 46.1267 14.7098 47.0446C14.6763 47.928 13.9241 48.7185 13.1014 48.7311C12.2317 48.7432 11.375 47.9125 11.3591 47.039C11.3416 46.1115 12.1258 45.3219 13.04 45.3413Z" fill="#0A0A0A"/>
<path d="M0.0390921 44.0233C1.14346 44.0294 1.95524 44.8791 1.93785 46.0114C1.92152 47.0368 1.03475 47.8839 0 47.899V44.0233C0.0128214 44.0232 0.0261715 44.0232 0.0390921 44.0233Z" fill="#0A0A0A"/>
<path d="M34.8813 43.18C35.8055 43.1767 36.4944 43.9046 36.512 44.9001C36.5275 45.8473 35.7863 46.6311 34.8813 46.6201C33.8974 46.607 33.2233 45.9267 33.2171 44.9448C33.2113 43.8338 33.8209 43.1851 34.8813 43.18Z" fill="#0A0A0A"/>
<path d="M40.963 37.2883C41.7979 37.2655 42.5678 38.0439 42.5657 38.9134C42.5632 39.7368 41.8562 40.4146 40.9853 40.4268C40.015 40.4395 39.4149 39.8288 39.4272 38.8408C39.4398 37.9633 40.0832 37.3136 40.963 37.2883Z" fill="#0A0A0A"/>
<path d="M16.3573 37.5284C17.1263 37.515 17.7181 38.1496 17.7143 38.9804C17.7093 39.8254 17.3029 40.3319 16.4578 40.3989C15.6846 40.4596 14.9717 39.706 14.9834 38.8967C14.9951 38.1727 15.6272 37.5412 16.3573 37.5284Z" fill="#0A0A0A"/>
<path d="M0.0670151 35.2946C1.13458 35.2651 1.91353 35.9835 1.93785 37.0202C1.9645 38.1709 1.25668 38.9341 0.156368 38.9413C0.103606 38.9417 0.051144 38.9277 0 38.9246V35.3002C0.0222418 35.2988 0.0445067 35.2952 0.0670151 35.2946Z" fill="#0A0A0A"/>
<path d="M47.1674 31.4021C48.0086 31.3786 48.5711 31.9095 48.5803 32.7424C48.5904 33.6545 48.0505 34.223 47.1674 34.2112C46.2481 34.199 45.8543 33.6363 45.8048 32.7927C45.7577 31.9871 46.3319 31.4265 47.1674 31.4021Z" fill="#0A0A0A"/>
<path d="M0.0614305 26.5491C1.01198 26.5104 1.94954 27.3971 1.93785 28.3306C1.92443 29.3084 1.14194 30.1441 0.234553 30.1568C0.154839 30.1578 0.0775568 30.1435 0 30.1344V26.5547C0.020546 26.5529 0.0408578 26.55 0.0614305 26.5491Z" fill="#0A0A0A"/>
<path d="M53.3328 25.0357C54.1295 24.9718 54.7726 25.5647 54.8016 26.3593C54.8309 27.2132 54.301 27.7888 53.4724 27.8057C52.6409 27.8205 51.9704 27.2289 52.0372 26.4542C52.1042 25.6817 52.4788 25.1047 53.3328 25.0357Z" fill="#0A0A0A"/>
<path d="M0.13403 17.9154C1.12818 17.9233 1.92938 18.6943 1.91551 19.6298C1.9021 20.5065 0.984696 21.3986 0.111692 21.3834C0.0740783 21.3827 0.0373664 21.37 0 21.3666V17.9265C0.0435591 17.9238 0.0895595 17.915 0.13403 17.9154Z" fill="#0A0A0A"/>
<path d="M0.0670151 8.98002C1.03898 8.96991 1.91914 9.75825 1.92668 10.6442C1.93363 11.5291 1.14619 12.3574 0.262476 12.3922C0.174101 12.3956 0.0866459 12.3813 0 12.3699V8.9856C0.0221868 8.98468 0.0444414 8.98027 0.0670151 8.98002Z" fill="#0A0A0A"/>
<path d="M0.0781842 2.16831e-07C0.970476 0.00252677 1.78482 0.794453 1.79824 1.67538C1.8106 2.47632 0.923304 3.38055 0.100523 3.4066C0.0674646 3.40762 0.0326154 3.39636 0 3.39543V0.00558481C0.0259339 0.00460237 0.0518936 -3.65064e-05 0.0781842 2.16831e-07Z" fill="#0A0A0A"/>
<path d="M137.353 44.4756C141.755 44.4756 145.412 45.4631 148.322 47.4347C151.236 49.4096 153.533 52.0797 155.215 55.4448C156.898 58.81 158.093 62.6136 158.808 66.8525C159.519 71.0947 159.876 75.4765 159.876 80.0078C159.876 84.539 159.522 88.9241 158.808 93.163C158.093 97.4052 156.898 101.222 155.215 104.619C153.533 108.017 151.233 110.703 148.322 112.678C145.409 114.65 141.755 115.637 137.353 115.637C132.952 115.637 129.294 114.65 126.384 112.678C123.47 110.707 121.174 108.02 119.491 104.619C117.809 101.222 116.61 97.4052 115.899 93.163C115.184 88.9274 114.83 84.539 114.83 80.0078C114.83 75.4798 115.184 71.0947 115.899 66.8525C116.61 62.6136 117.806 58.8132 119.491 55.4448C121.174 52.0797 123.47 49.4096 126.384 47.4347C129.294 45.4631 132.952 44.4756 137.353 44.4756ZM137.353 51.8523C132.371 51.8523 128.697 54.4086 126.335 59.5213C123.971 64.634 122.792 71.4617 122.792 80.0045C122.792 84.1492 123.068 87.9172 123.617 91.3148C124.166 94.7124 124.991 97.6131 126.092 100.004L145.217 55.055C143.08 52.921 140.462 51.8523 137.353 51.8523ZM151.915 80.0078C151.915 76.2561 151.688 72.8227 151.236 69.7175C150.781 66.6122 150.103 63.8609 149.196 61.467L130.461 105.928C132.403 107.481 134.7 108.257 137.353 108.257C140.718 108.257 143.47 107.095 145.604 104.762C147.738 102.43 149.326 99.1495 150.362 94.9073C151.395 90.6716 151.915 85.7019 151.915 80.0078Z" fill="#0A0A0A"/>
<path d="M191.914 113.89V64.6698H173.759V58.261C177.771 58.0661 180.957 57.8095 183.322 57.4847C185.683 57.1599 187.512 56.5785 188.808 55.7372C190.104 54.8991 191.121 53.6486 191.868 52.0017C192.612 50.3516 193.339 48.1039 194.054 45.2552H200.463V113.89H191.914Z" fill="#0A0A0A"/>
<path d="M245.889 86.0267H231.23V113.887H222.395V46.0282H246.178C252.714 46.0282 257.956 47.5484 261.906 50.592C265.853 53.6355 267.828 58.2935 267.828 64.5723C267.828 68.5221 266.954 71.8385 265.206 74.5215C263.459 77.2078 260.578 79.553 256.566 81.5604C258.96 82.5316 260.805 83.6003 262.098 84.7631C263.391 85.926 264.329 87.4981 264.914 89.473C265.495 91.4447 265.885 94.0822 266.077 97.3824L266.369 102.43C266.499 104.051 266.759 105.73 267.145 107.478C267.532 109.225 268.438 110.619 269.864 111.652V113.883H259.866C259.152 112.396 258.557 110.681 258.07 108.738C257.586 106.796 257.342 104.727 257.342 102.524V98.2529C257.342 94.2382 256.436 91.2011 254.624 89.1255C252.814 87.0629 249.901 86.0267 245.889 86.0267ZM231.23 53.6973V78.3577H244.434C248.835 78.3577 252.298 77.4027 254.822 75.4927C257.346 73.5828 258.609 70.2664 258.609 65.5435C258.609 61.402 257.362 58.3909 254.87 56.5135C252.379 54.636 248.9 53.7005 244.434 53.7005L231.23 53.6973Z" fill="#0A0A0A"/>
<path d="M319.961 83.113H290.838V105.928H323.167V113.89H281.808V46.0282H321.417V53.9896H290.838V75.1549H319.961V83.113Z" fill="#0A0A0A"/>
<path d="M381.999 65.641H373.261C373.131 61.7594 371.903 58.5372 369.571 55.9809C367.242 53.4245 363.711 52.148 358.988 52.148C354.327 52.148 350.783 53.1841 348.357 55.2533C345.93 57.3256 344.716 59.882 344.716 62.9223C344.716 68.3598 347.788 71.7899 353.937 73.2159L367.82 76.4186C373.128 77.6464 377.139 79.8812 379.858 83.1164C382.577 86.3549 383.934 90.1715 383.934 94.5728C383.934 99.0391 382.915 102.84 380.875 105.981C378.835 109.122 376.022 111.515 372.429 113.166C368.837 114.816 364.647 115.641 359.855 115.641C351.443 115.641 345.018 113.552 340.584 109.378C336.15 105.204 333.87 99.4939 333.74 92.2406H342.478C342.543 96.7719 344.063 100.462 347.041 103.311C350.017 106.159 354.353 107.582 360.05 107.582C365.163 107.582 368.899 106.484 371.263 104.282C373.625 102.083 374.807 99.2665 374.807 95.8364C374.807 92.7961 373.982 90.3989 372.332 88.6513C370.682 86.9038 368.171 85.6403 364.809 84.8639L350.731 81.5638C345.813 80.3976 342.059 78.3123 339.47 75.3012C336.881 72.2934 335.585 68.4572 335.585 63.7993C335.585 59.9826 336.556 56.6305 338.499 53.7526C340.441 50.8714 343.173 48.6074 346.7 46.9573C350.228 45.3072 354.418 44.4822 359.274 44.4822C363.997 44.4822 368.06 45.356 371.458 47.1035C374.856 48.851 377.461 51.2287 379.273 54.2366C381.086 57.2477 381.992 60.629 381.992 64.384V65.641H381.999Z" fill="#0A0A0A"/>
<path d="M419.86 44.4757C428.207 44.4757 434.697 47.5972 439.323 53.8435C443.948 60.0898 446.264 68.8438 446.264 80.1021C446.264 91.3636 443.948 100.101 439.323 106.315C434.694 112.529 428.207 115.634 419.86 115.634C411.512 115.634 405.022 112.529 400.396 106.315C395.768 100.105 393.455 91.3668 393.455 80.1021C393.455 68.8405 395.768 60.0866 400.396 53.8435C405.022 47.6005 411.512 44.4757 419.86 44.4757ZM419.86 52.437C414.552 52.437 410.394 54.8797 407.383 59.7683C404.372 64.6568 402.868 71.4358 402.868 80.1053C402.868 88.7163 404.372 95.4628 407.383 100.348C410.391 105.233 414.549 107.679 419.86 107.679C425.232 107.679 429.406 105.237 432.381 100.348C435.357 95.4628 436.848 88.7131 436.848 80.1053C436.848 71.4358 435.36 64.6568 432.381 59.7683C429.406 54.8797 425.232 52.437 419.86 52.437Z" fill="#0A0A0A"/>
<path d="M459.468 46.0283H468.495V105.928H500.825V113.89H459.468V46.0283Z" fill="#0A0A0A"/>
<path d="M554.804 46.0283L532.959 113.887H522.474L500.63 46.0283H510.144L527.811 104.567L545.384 46.0283H554.804Z" fill="#0A0A0A"/>
<path d="M604.413 83.1131H575.29V105.928H607.619V113.89H566.263V46.0283H605.871V53.9896H575.293V75.155H604.416L604.413 83.1131Z" fill="#0A0A0A"/>
<path d="M642.177 113.89H620.235V46.0283H642.177C647.936 46.0283 652.724 47.4835 656.544 50.3971C660.36 53.3075 663.225 57.306 665.135 62.3862C667.042 67.4697 668 73.31 668 79.9103C668 86.5107 667.045 92.3705 665.135 97.4832C663.225 102.596 660.36 106.607 656.544 109.521C652.724 112.431 647.936 113.89 642.177 113.89ZM629.265 53.9896V105.928H640.624C646.965 105.928 651.545 103.616 654.361 98.9871C657.177 94.3616 658.583 88.0341 658.583 80.0078C658.583 71.9165 657.177 65.5597 654.361 60.931C651.545 56.3023 646.965 53.9896 640.624 53.9896H629.265Z" fill="#0A0A0A"/>
</svg>
